<?xml version="1.0" encoding="UTF-8"?>
<svg id="Layer_1" xmlns="http://www.w3.org/2000/svg" version="1.1" viewBox="0 0 3866.7 500">
  <!-- Generator: Adobe Illustrator 29.5.0, SVG Export Plug-In . SVG Version: 2.1.0 Build 137)  -->
  <g>
    <path class="currentColor" d="M624.1,178.4l-135-81c-39.8-23.9-85.3-36.5-131.7-36.5h0c-46.4,0-91.9,12.6-131.7,36.5l-135,81c-25.2,15.1-40.5,42.3-40.5,71.6h0c0,29.3,15.4,56.5,40.5,71.6l135,81c39.8,23.9,85.3,36.5,131.7,36.5h0c46.4,0,91.9-12.6,131.7-36.5l135-81c25.2-15.1,40.5-42.3,40.5-71.6h0c0-29.3-15.4-56.5-40.5-71.6ZM546.5,250h0c0,29.8-13.9,57.9-37.6,75.9l-109.1,83.1c-12.2,9.3-27.1,14.3-42.4,14.3h0c-15.3,0-30.2-5-42.4-14.3l-109.1-83.1c-23.7-18.1-37.6-46.1-37.6-75.9h0c0-29.8,13.9-57.9,37.6-75.9l109.1-83.1c12.2-9.3,27.1-14.3,42.4-14.3h0c15.3,0,30.2,5,42.4,14.3l109.1,83.1c23.7,18.1,37.6,46.1,37.6,75.9h0Z"/>
    <path class="currentColor" d="M383.9,214c-15.7-17.8-25.6-41-26.5-66.4h-.1c-2.1,56.9-48.9,102.4-106.3,102.4,21.7,0,42,6.5,58.8,17.7,27.6,18.4,46.2,49.3,47.5,84.7h.1c.9-25.4,10.8-48.6,26.5-66.4,6.2-7,13.2-13.1,21-18.3,16.8-11.2,37.1-17.7,58.8-17.7-31.8,0-60.3-13.9-79.8-36Z"/>
  </g>
  <g>
    <path class="currentColor" d="M1035.4,355c-18.5,13.3-41.2,20-68.2,20s-34.7-3.1-48.7-9.4c-14-6.3-25.8-15.1-35.3-26.4-9.6-11.4-16.7-24.6-21.5-39.8-4.8-15.2-7.2-31.6-7.2-49.4s2.4-34.8,7.2-49.9c4.8-15.2,11.8-28.3,21-39.5,9.2-11.2,20.8-19.9,34.6-26.2,13.8-6.3,29.5-9.4,47-9.4s33.2,3,47.2,8.9c14,5.9,25.5,14.5,34.6,25.7,9.1,11.2,14.7,25,17.1,41.5h71.2c-3-28.3-11.7-53-26.2-74.1-14.5-21.1-33.9-37.6-58.3-49.4-24.4-11.9-52.9-17.8-85.5-17.8s-58.4,5.4-81.3,16.1c-22.9,10.7-41.7,25-56.3,42.8-14.7,17.8-25.5,37.6-32.6,59.3-7.1,21.7-10.6,43.8-10.6,66.2v10.9c0,20.4,3.5,41.4,10.4,63,6.9,21.6,17.7,41.7,32.4,60.3,14.7,18.6,33.6,33.6,56.8,45,23.2,11.4,51.3,17.1,84.3,17.1s63.8-6.4,88.5-19.3c24.7-12.9,44.2-30,58.3-51.4,14.2-21.4,22.9-45,26.2-70.7h-71.2c-4,24.1-15.2,42.8-33.6,56.1Z"/>
    <path class="currentColor" d="M1425.6,194.9c-12.7-13-28.1-23.2-46.2-30.6-18.1-7.4-38.6-11.1-61.3-11.1s-43.2,3.7-61.5,11.1c-18.3,7.4-33.8,17.6-46.5,30.6-12.7,13-22.3,27.8-28.9,44.5-6.6,16.6-9.9,34.2-9.9,52.6v10.4c0,18.1,3.2,35.4,9.6,51.9,6.4,16.5,15.9,31.1,28.4,44,12.5,12.9,27.8,23.1,46,30.6,18.1,7.6,39,11.4,62.8,11.4s44.2-3.8,62.3-11.4c18.1-7.6,33.4-17.8,46-30.6,12.5-12.8,22-27.5,28.4-44,6.4-16.5,9.6-33.8,9.6-51.9v-10.4c0-18.4-3.3-36-9.9-52.6-6.6-16.6-16.2-31.5-28.9-44.5ZM1386.6,340.2c-6.1,12.7-14.9,22.7-26.4,30.2-11.5,7.4-25.5,11.1-42,11.1s-31-3.7-42.5-11.1c-11.5-7.4-20.3-17.5-26.4-30.2-6.1-12.7-9.1-27.1-9.1-43.2s3.1-30.6,9.4-43.5c6.3-12.9,15.2-23,26.9-30.4,11.7-7.4,25.6-11.1,41.8-11.1s30,3.7,41.5,11.1c11.5,7.4,20.4,17.5,26.7,30.4,6.3,12.9,9.4,27.4,9.4,43.5s-3.1,30.6-9.1,43.2Z"/>
    <path class="currentColor" d="M1597.4,189c-12.5,15.1-20.2,35.4-23.2,60.9v-87.3h-54.4v268.4h68.7v-139.4c0-23.4,6.3-41.3,19-53.9,12.7-12.5,30.6-18.8,53.6-18.8h18.8v-59.8h-9.9c-32,0-56.2,10-72.7,29.9Z"/>
    <path class="currentColor" d="M1909,172.2c-19.6-12.7-43.9-19-72.9-19s-41.6,3.9-58.6,11.6c-17,7.7-31.1,18.1-42.3,31.1-11.2,13-19.7,27.8-25.5,44.5-5.8,16.6-8.6,33.9-8.6,51.6v9.4c0,17.1,2.9,33.9,8.6,50.4,5.8,16.5,14.3,31.4,25.7,44.7,11.4,13.3,25.7,24,43,31.9,17.3,7.9,37.5,11.9,60.5,11.9s41.8-3.8,59.1-11.4c17.3-7.6,31.5-18.3,42.8-32.1,11.2-13.8,18.8-30,22.7-48.4h-63.8c-3,9.9-9.7,18.2-20.3,25-10.5,6.8-24.1,10.1-40.5,10.1s-30.6-3.7-41.5-11.1-19-17.6-24.2-30.6c-3.4-8.5-5.8-17.8-6.9-27.9h201.7v-25.2c0-23.7-4.9-45.9-14.8-66.5-9.9-20.6-24.6-37.2-44.2-49.9ZM1797.5,220.6c10.5-7.1,23.4-10.6,38.6-10.6s27.7,3.3,37.6,9.9c9.9,6.6,17.4,16,22.5,28.2,2.9,6.9,5,14.7,6.2,23.2h-134.8c1.4-7.5,3.4-14.5,6-20.8,5.4-12.9,13.4-22.8,24-29.9Z"/>
    <path class="currentColor" d="M2256.7,355c-18.5,13.3-41.2,20-68.2,20s-34.7-3.1-48.7-9.4c-14-6.3-25.8-15.1-35.3-26.4-9.6-11.4-16.7-24.6-21.5-39.8-4.8-15.2-7.2-31.6-7.2-49.4s2.4-34.8,7.2-49.9c4.8-15.2,11.8-28.3,21-39.5,9.2-11.2,20.8-19.9,34.6-26.2,13.8-6.3,29.5-9.4,47-9.4s33.2,3,47.2,8.9c14,5.9,25.5,14.5,34.6,25.7,9.1,11.2,14.7,25,17.1,41.5h71.2c-3-28.3-11.7-53-26.2-74.1-14.5-21.1-33.9-37.6-58.3-49.4-24.4-11.9-52.9-17.8-85.5-17.8s-58.4,5.4-81.3,16.1c-22.9,10.7-41.7,25-56.3,42.8-14.7,17.8-25.5,37.6-32.6,59.3-7.1,21.7-10.6,43.8-10.6,66.2v10.9c0,20.4,3.5,41.4,10.4,63,6.9,21.6,17.7,41.7,32.4,60.3,14.7,18.6,33.6,33.6,56.8,45,23.2,11.4,51.3,17.1,84.3,17.1s63.8-6.4,88.5-19.3c24.7-12.9,44.2-30,58.3-51.4,14.2-21.4,22.9-45,26.2-70.7h-71.2c-4,24.1-15.2,42.8-33.6,56.1Z"/>
    <path class="currentColor" d="M2488,189c-12.5,15.1-20.2,35.4-23.2,60.9v-87.3h-54.4v268.4h68.7v-139.4c0-23.4,6.3-41.3,19-53.9,12.7-12.5,30.6-18.8,53.6-18.8h18.8v-59.8h-9.9c-32,0-56.2,10-72.7,29.9Z"/>
    <path class="currentColor" d="M2799.6,172.2c-19.6-12.7-43.9-19-72.9-19s-41.6,3.9-58.6,11.6c-17,7.7-31.1,18.1-42.3,31.1-11.2,13-19.7,27.8-25.5,44.5-5.8,16.6-8.6,33.9-8.6,51.6v9.4c0,17.1,2.9,33.9,8.6,50.4,5.8,16.5,14.3,31.4,25.7,44.7,11.4,13.3,25.7,24,43,31.9s37.5,11.9,60.5,11.9,41.8-3.8,59.1-11.4c17.3-7.6,31.5-18.3,42.8-32.1,11.2-13.8,18.8-30,22.7-48.4h-63.8c-3,9.9-9.7,18.2-20.3,25-10.5,6.8-24.1,10.1-40.5,10.1s-30.6-3.7-41.5-11.1-19-17.6-24.2-30.6c-3.4-8.5-5.8-17.8-6.9-27.9h201.7v-25.2c0-23.7-4.9-45.9-14.8-66.5-9.9-20.6-24.6-37.2-44.2-49.9ZM2688.2,220.6c10.5-7.1,23.4-10.6,38.6-10.6s27.7,3.3,37.6,9.9c9.9,6.6,17.4,16,22.5,28.2,2.9,6.9,5,14.7,6.2,23.2h-134.8c1.4-7.5,3.4-14.5,6-20.8,5.4-12.9,13.4-22.8,24-29.9Z"/>
    <path class="currentColor" d="M3072.5,169.4c-18.3-7.2-41.3-10.9-68.9-10.9s-18.5,0-28.7.2c-10.2.2-20,.6-29.4,1.2-9.4.7-17.9,1.3-25.5,2v58.3c9.2-.7,19.7-1.2,31.4-1.7,11.7-.5,23.3-.9,34.8-1.2,11.5-.3,21.4-.5,29.7-.5,15.5,0,27,3.9,34.6,11.6,7.6,7.7,11.4,19.2,11.4,34.4v2.5h-54.4c-23.7,0-44.5,3.1-62.3,9.4-17.8,6.3-31.5,15.7-41,28.2-9.6,12.5-14.3,28.7-14.3,48.4s4,33.6,12.1,46.5c8.1,12.8,19.4,22.7,33.9,29.7,14.5,6.9,31.5,10.4,50.9,10.4s34.7-3.4,47.7-10.1c13-6.8,23.2-16.6,30.6-29.4,3.3-5.7,6-12,8.2-18.8v51.5h54.9v-166.1c0-25-4.7-45.4-14.1-61-9.4-15.6-23.2-27.1-41.5-34.4ZM3052.9,365.9c-5.3,8.4-11.9,14.3-20,17.8-8.1,3.5-16.9,5.2-26.4,5.2-15.8,0-27.9-3.8-36.3-11.4-8.4-7.6-12.6-17.5-12.6-29.7s4.2-22.1,12.6-29.7c8.4-7.6,20.5-11.4,36.3-11.4h55.4v24.7c-.7,14.5-3.6,25.9-8.9,34.4Z"/>
    <path class="currentColor" d="M3269.4,86.9h-64.7v75.6h-42.5v50.4h42.5v117.1c0,26,3.9,46.7,11.6,62,7.7,15.3,19.6,26.2,35.6,32.6,16,6.4,36.5,9.6,61.5,9.6h38.6v-58.8h-42c-13.2,0-23.3-3.5-30.4-10.6-7.1-7.1-10.6-17.2-10.6-30.4l.2-121.6h82.8v-50.4h-82.7l.2-75.6Z"/>
    <path class="currentColor" d="M3593.4,172.2c-19.6-12.7-43.9-19-72.9-19s-41.6,3.9-58.6,11.6c-17,7.7-31.1,18.1-42.3,31.1-11.2,13-19.7,27.8-25.5,44.5-5.8,16.6-8.6,33.9-8.6,51.6v9.4c0,17.1,2.9,33.9,8.6,50.4,5.8,16.5,14.3,31.4,25.7,44.7,11.4,13.3,25.7,24,43,31.9,17.3,7.9,37.5,11.9,60.5,11.9s41.8-3.8,59.1-11.4c17.3-7.6,31.5-18.3,42.8-32.1,11.2-13.8,18.8-30,22.7-48.4h-63.8c-3,9.9-9.7,18.2-20.3,25-10.5,6.8-24.1,10.1-40.5,10.1s-30.6-3.7-41.5-11.1c-10.9-7.4-19-17.6-24.2-30.6-3.4-8.5-5.8-17.8-6.9-27.9h201.7v-25.2c0-23.7-4.9-45.9-14.8-66.5-9.9-20.6-24.6-37.2-44.2-49.9ZM3482,220.6c10.5-7.1,23.4-10.6,38.6-10.6s27.7,3.3,37.6,9.9c9.9,6.6,17.4,16,22.5,28.2,2.9,6.9,5,14.7,6.2,23.2h-134.8c1.4-7.5,3.4-14.5,6-20.8,5.4-12.9,13.4-22.8,24-29.9Z"/>
    <rect class="currentColor" x="3689.1" y="351.8" width="77.6" height="79.1"/>
  </g>
</svg>